<svg xmlns="http://www.w3.org/2000/svg" width="14" height="14" viewBox="0 0 313 313">
  <path d="M305.6 178.1c-3.2-.8-6.4 0-9.2 2-10.4 8.8-22.4 16-35.6 20.8-12.4 4.8-26 7.2-40.4 7.2-32.4 0-62-13.2-83.2-34.4s-34.4-50.8-34.4-83.2c0-13.6 2.4-26.8 6.4-38.8 4.4-12.8 10.8-24.4 19.2-34.4 3.6-4.4 2.8-10.8-1.6-14.4-2.8-2-6-2.8-9.2-2-34 9.2-63.6 29.6-84.8 56.8C12.4 84.5 0 117.7 0 154.1c0 43.6 17.6 83.2 46.4 112s68.4 46.4 112 46.4c36.8 0 70.8-12.8 98-34 27.6-21.6 47.6-52.4 56-87.6 2-6-1.2-11.6-6.8-12.8z" fill="#fff"/>
</svg>
